<svg width="1200" height="151" viewBox="0 0 1200 151" fill="none" xmlns="http://www.w3.org/2000/svg">
<g clip-path="url(#clip0_155_2186)">
<rect width="1200" height="151" fill="#093420"/>
<g opacity="0.12">
<path d="M282 128.176C282 57.42 339.573 -0.069458 409.941 -0.069458C481.292 -0.069458 538.374 57.42 538.374 128.176C538.374 172.89 574.788 209.251 620.059 209.251C641.71 209.251 662.378 200.407 676.648 185.666C681.077 180.752 687.966 178.787 693.379 178.787C700.268 178.787 705.681 180.752 710.11 185.666C718.967 194.51 718.967 209.742 710.11 218.587C686.49 241.681 655.489 255.931 620.059 255.931C548.707 255.931 491.134 198.932 491.134 128.176C491.134 82.9708 455.212 46.61 409.941 46.61C365.162 46.61 328.748 82.9708 328.748 128.176C328.748 172.89 365.162 209.251 409.941 209.251C433.069 209.251 454.72 198.932 468.99 183.209C473.911 198.932 481.784 213.182 492.118 224.975C469.975 244.629 441.926 255.931 409.941 255.931C339.573 255.931 282 198.932 282 128.176ZM536.405 30.395C558.549 11.2319 588.074 -0.069458 620.059 -0.069458C655.489 -0.069458 686.49 14.1801 710.11 36.7828C718.967 46.61 718.967 61.3509 710.11 70.6868C705.681 74.6177 699.776 77.0745 693.379 77.0745C687.966 77.0745 681.077 74.6177 676.648 70.6868C661.394 55.4545 641.71 46.61 620.059 46.61C595.947 46.61 575.28 56.9286 560.517 72.6522C555.596 56.9286 547.231 42.1877 536.405 30.395Z" fill="#05C450"/>
<path d="M755.859 24.3039C760.333 10.8429 775.214 2.36158 789.097 5.36042C802.979 8.35925 810.606 21.7026 806.132 35.1637L792.944 74.8441C788.47 88.3051 773.588 96.7864 759.706 93.7876C745.823 90.7888 738.196 77.4454 742.67 63.9843L755.859 24.3039Z" fill="#05C450"/>
<path d="M826.446 24.3039C830.92 10.8429 845.801 2.36158 859.684 5.36042C873.567 8.35925 881.194 21.7026 876.72 35.1637L863.531 74.8441C859.057 88.3051 844.176 96.7864 830.293 93.7876C816.411 90.7888 808.784 77.4454 813.258 63.9843L826.446 24.3039Z" fill="#05C450"/>
</g>
</g>
<defs>
<clipPath id="clip0_155_2186">
<rect width="1200" height="151" fill="white"/>
</clipPath>
</defs>
</svg>
