<svg width="584" height="87" viewBox="0 0 584 87" fill="none" xmlns="http://www.w3.org/2000/svg">
<g clip-path="url(#clip0_155_1756)">
<rect width="584" height="87" fill="#093420"/>
<g opacity="0.12">
<path d="M-26 128.176C-26 57.42 31.5733 -0.069458 101.941 -0.069458C173.292 -0.069458 230.374 57.42 230.374 128.176C230.374 172.89 266.788 209.251 312.059 209.251C333.71 209.251 354.378 200.407 368.648 185.666C373.077 180.752 379.966 178.787 385.379 178.787C392.268 178.787 397.681 180.752 402.11 185.666C410.967 194.51 410.967 209.742 402.11 218.587C378.49 241.681 347.489 255.931 312.059 255.931C240.707 255.931 183.134 198.932 183.134 128.176C183.134 82.9708 147.212 46.61 101.941 46.61C57.1615 46.61 20.7476 82.9708 20.7476 128.176C20.7476 172.89 57.1615 209.251 101.941 209.251C125.069 209.251 146.72 198.932 160.99 183.209C165.911 198.932 173.784 213.182 184.118 224.975C161.975 244.629 133.926 255.931 101.941 255.931C31.5733 255.931 -26 198.932 -26 128.176ZM228.405 30.395C250.549 11.2319 280.074 -0.069458 312.059 -0.069458C347.489 -0.069458 378.49 14.1801 402.11 36.7828C410.967 46.61 410.967 61.3509 402.11 70.6868C397.681 74.6177 391.776 77.0745 385.379 77.0745C379.966 77.0745 373.077 74.6177 368.648 70.6868C353.394 55.4545 333.71 46.61 312.059 46.61C287.947 46.61 267.28 56.9286 252.517 72.6522C247.596 56.9286 239.231 42.1877 228.405 30.395Z" fill="#05C450"/>
<path d="M447.859 24.3039C452.333 10.8429 467.214 2.36158 481.097 5.36042C494.979 8.35925 502.606 21.7026 498.132 35.1637L484.944 74.8441C480.47 88.3051 465.588 96.7864 451.706 93.7876C437.823 90.7888 430.196 77.4454 434.67 63.9843L447.859 24.3039Z" fill="#05C450"/>
<path d="M518.446 24.3039C522.92 10.8429 537.801 2.36158 551.684 5.36042C565.567 8.35925 573.194 21.7026 568.72 35.1637L555.531 74.8441C551.057 88.3051 536.176 96.7864 522.293 93.7876C508.411 90.7888 500.784 77.4454 505.258 63.9843L518.446 24.3039Z" fill="#05C450"/>
</g>
</g>
<defs>
<clipPath id="clip0_155_1756">
<rect width="584" height="87" fill="white"/>
</clipPath>
</defs>
</svg>
