<svg width="1440" height="255" viewBox="0 0 1440 255" fill="none" xmlns="http://www.w3.org/2000/svg">
<g clip-path="url(#clip0_155_2169)">
<rect width="1440" height="255" fill="#093420"/>
<g opacity="0.2">
<path d="M670 127.818C670 36.3321 744.382 -38 835.293 -38C927.475 -38 1001.22 36.3321 1001.22 127.818C1001.22 185.631 1048.27 232.645 1106.75 232.645C1134.73 232.645 1161.43 221.209 1179.86 202.15C1185.59 195.797 1194.49 193.255 1201.48 193.255C1210.38 193.255 1217.37 195.797 1223.09 202.15C1234.54 213.585 1234.54 233.28 1223.09 244.716C1192.58 274.576 1152.53 293 1106.75 293C1014.57 293 940.19 219.303 940.19 127.818C940.19 69.3685 893.781 22.3551 835.293 22.3551C777.44 22.3551 730.395 69.3685 730.395 127.818C730.395 185.631 777.44 232.645 835.293 232.645C865.172 232.645 893.145 219.303 911.582 198.973C917.939 219.303 928.111 237.727 941.461 252.975C912.853 278.388 876.616 293 835.293 293C744.382 293 670 219.303 670 127.818ZM998.678 1.38964C1027.29 -23.3877 1065.43 -38 1106.75 -38C1152.53 -38 1192.58 -19.5758 1223.09 9.64877C1234.54 22.3551 1234.54 41.4146 1223.09 53.4856C1217.37 58.5681 1209.74 61.7447 1201.48 61.7447C1194.49 61.7447 1185.59 58.5681 1179.86 53.4856C1160.16 33.7908 1134.73 22.3551 1106.75 22.3551C1075.6 22.3551 1048.9 35.6967 1029.83 56.0269C1023.47 35.6967 1012.66 16.6372 998.678 1.38964Z" fill="#05C450"/>
<path d="M1282.2 -6.48595C1287.98 -23.8907 1307.21 -34.8567 1325.14 -30.9793C1343.08 -27.1019 1352.93 -9.84936 1347.15 7.55537L1330.11 58.8609C1324.33 76.2656 1305.11 87.2317 1287.17 83.3543C1269.23 79.4769 1259.38 62.2243 1265.16 44.8195L1282.2 -6.48595Z" fill="#05C450"/>
<path d="M1373.4 -6.48595C1379.18 -23.8907 1398.4 -34.8567 1416.34 -30.9793C1434.27 -27.1019 1444.13 -9.84936 1438.35 7.55537L1421.31 58.8608C1415.53 76.2656 1396.3 87.2316 1378.37 83.3542C1360.43 79.4768 1350.58 62.2243 1356.36 44.8195L1373.4 -6.48595Z" fill="#05C450"/>
</g>
</g>
<defs>
<clipPath id="clip0_155_2169">
<rect width="1440" height="255" fill="white"/>
</clipPath>
</defs>
</svg>
