<svg width="502" height="216" viewBox="0 0 502 216" fill="none" xmlns="http://www.w3.org/2000/svg">
<g opacity="0.4">
<g opacity="0.2">
<path d="M40 99.19C40 44.4645 84.629 0 139.176 0C194.485 0 238.733 44.4645 238.733 99.19C238.733 133.774 266.96 161.896 302.052 161.896C318.836 161.896 334.857 155.056 345.918 143.655C349.352 139.854 354.692 138.334 358.888 138.334C364.228 138.334 368.424 139.854 371.857 143.655C378.723 150.495 378.723 162.276 371.857 169.117C353.547 186.979 329.516 198 302.052 198C246.743 198 202.114 153.916 202.114 99.19C202.114 64.2265 174.268 36.1036 139.176 36.1036C104.464 36.1036 76.2372 64.2265 76.2372 99.19C76.2372 133.774 104.464 161.896 139.176 161.896C157.103 161.896 173.887 153.916 184.949 141.754C188.763 153.916 194.866 164.937 202.877 174.058C185.712 189.259 163.969 198 139.176 198C84.629 198 40 153.916 40 99.19ZM237.207 23.5624C254.372 8.74088 277.258 0 302.052 0C329.516 0 353.547 11.0211 371.857 28.5029C378.723 36.1036 378.723 47.5048 371.857 54.7255C368.424 57.7658 363.846 59.666 358.888 59.666C354.692 59.666 349.352 57.7658 345.918 54.7255C334.094 42.9443 318.836 36.1036 302.052 36.1036C283.362 36.1036 267.341 44.0844 255.898 56.2457C252.083 44.0844 245.599 32.6833 237.207 23.5624Z" fill="#00C159"/>
<path d="M407.32 18.8513C410.788 8.44002 422.324 1.88026 433.085 4.19967C443.846 6.51908 449.759 16.8394 446.29 27.2506L436.067 57.9409C432.599 68.3522 421.064 74.912 410.302 72.5926C399.541 70.2732 393.628 59.9529 397.097 49.5416L407.32 18.8513Z" fill="#00C159"/>
<path d="M462.037 18.8513C465.505 8.44002 477.041 1.88026 487.802 4.19967C498.563 6.51908 504.476 16.8394 501.008 27.2506L490.784 57.9409C487.316 68.3522 475.781 74.912 465.019 72.5926C454.258 70.2731 448.346 59.9529 451.814 49.5416L462.037 18.8513Z" fill="#00C159"/>
</g>
<g opacity="0.6">
<path d="M20 108.19C20 53.4645 64.629 9 119.176 9C174.485 9 218.733 53.4645 218.733 108.19C218.733 142.774 246.96 170.896 282.052 170.896C298.836 170.896 314.857 164.056 325.918 152.655C329.352 148.854 334.692 147.334 338.888 147.334C344.228 147.334 348.424 148.854 351.857 152.655C358.723 159.495 358.723 171.276 351.857 178.117C333.547 195.979 309.516 207 282.052 207C226.743 207 182.114 162.916 182.114 108.19C182.114 73.2265 154.268 45.1036 119.176 45.1036C84.4641 45.1036 56.2372 73.2265 56.2372 108.19C56.2372 142.774 84.4641 170.896 119.176 170.896C137.103 170.896 153.887 162.916 164.949 150.754C168.763 162.916 174.866 173.937 182.877 183.058C165.712 198.259 143.969 207 119.176 207C64.629 207 20 162.916 20 108.19ZM217.207 32.5624C234.372 17.7409 257.258 9 282.052 9C309.516 9 333.547 20.0211 351.857 37.5029C358.723 45.1036 358.723 56.5048 351.857 63.7255C348.424 66.7658 343.846 68.666 338.888 68.666C334.692 68.666 329.352 66.7658 325.918 63.7255C314.094 51.9443 298.836 45.1036 282.052 45.1036C263.362 45.1036 247.341 53.0844 235.898 65.2457C232.083 53.0844 225.599 41.6833 217.207 32.5624Z" fill="#00C159"/>
<path d="M387.32 27.8513C390.788 17.44 402.324 10.8803 413.085 13.1997C423.846 15.5191 429.759 25.8394 426.29 36.2506L416.067 66.9409C412.599 77.3522 401.064 83.912 390.302 81.5926C379.541 79.2732 373.628 68.9529 377.097 58.5416L387.32 27.8513Z" fill="#00C159"/>
<path d="M442.037 27.8513C445.505 17.44 457.041 10.8803 467.802 13.1997C478.563 15.5191 484.476 25.8394 481.008 36.2506L470.784 66.9409C467.316 77.3522 455.781 83.912 445.019 81.5926C434.258 79.2731 428.346 68.9529 431.814 58.5416L442.037 27.8513Z" fill="#00C159"/>
</g>
<g opacity="0.9">
<path d="M0 117.19C0 62.4645 44.629 18 99.1756 18C154.485 18 198.733 62.4645 198.733 117.19C198.733 151.774 226.96 179.896 262.052 179.896C278.836 179.896 294.857 173.056 305.918 161.655C309.352 157.854 314.692 156.334 318.888 156.334C324.228 156.334 328.424 157.854 331.857 161.655C338.723 168.495 338.723 180.276 331.857 187.117C313.547 204.979 289.516 216 262.052 216C206.743 216 162.114 171.916 162.114 117.19C162.114 82.2265 134.268 54.1036 99.1756 54.1036C64.4641 54.1036 36.2372 82.2265 36.2372 117.19C36.2372 151.774 64.4641 179.896 99.1756 179.896C117.103 179.896 133.887 171.916 144.949 159.754C148.763 171.916 154.866 182.937 162.877 192.058C145.712 207.259 123.969 216 99.1756 216C44.629 216 0 171.916 0 117.19ZM197.207 41.5624C214.372 26.7409 237.259 18 262.052 18C289.516 18 313.547 29.0211 331.857 46.5029C338.723 54.1036 338.723 65.5048 331.857 72.7255C328.424 75.7658 323.846 77.666 318.888 77.666C314.692 77.666 309.352 75.7658 305.918 72.7255C294.094 60.9443 278.836 54.1036 262.052 54.1036C243.362 54.1036 227.341 62.0844 215.898 74.2457C212.083 62.0844 205.599 50.6833 197.207 41.5624Z" fill="#00C159"/>
<path d="M367.32 36.8513C370.788 26.44 382.323 19.8803 393.085 22.1997C403.846 24.5191 409.759 34.8394 406.29 45.2506L396.067 75.9409C392.599 86.3522 381.064 92.912 370.302 90.5926C359.541 88.2732 353.628 77.9529 357.097 67.5416L367.32 36.8513Z" fill="#00C159"/>
<path d="M422.037 36.8513C425.505 26.44 437.041 19.8803 447.802 22.1997C458.563 24.5191 464.476 34.8394 461.008 45.2506L450.784 75.9409C447.316 86.3522 435.781 92.912 425.019 90.5926C414.258 88.2731 408.346 77.9529 411.814 67.5416L422.037 36.8513Z" fill="#00C159"/>
</g>
</g>
</svg>
