<svg width="197" height="21" viewBox="0 0 197 21" fill="none" xmlns="http://www.w3.org/2000/svg">
<path d="M2.8532 7.12926C3.84431 6.0554 5.31597 5.36932 6.93779 5.36932C10.7521 5.36932 13.8756 8.47159 13.8756 12.2599V19.5085C13.8756 20.2841 13.2449 20.9105 12.464 20.9105C11.6831 20.9105 11.0224 20.2543 11.0224 19.5085V12.2599C11.0224 9.9929 9.16028 8.20312 6.93779 8.20312C4.71529 8.20312 2.8532 9.9929 2.8532 12.2599V19.5085C2.8532 20.2841 2.19246 20.9105 1.41158 20.9105C0.630708 20.9105 0 20.2543 0 19.5085V1.43182C0 0.65625 0.630708 0 1.41158 0C2.19246 0 2.8532 0.65625 2.8532 1.43182V7.12926Z" fill="white"/>
<path d="M16.3484 13.125C16.3484 8.85937 19.8323 5.39915 24.1872 5.39915C28.1517 5.39915 31.4253 8.35227 31.8758 12.1406C32.1161 13.3338 31.7257 14.169 30.224 14.169H19.4119C19.8323 16.3764 21.7545 18.0767 24.1872 18.0767C25.5387 18.0767 26.7701 17.5398 27.6711 16.6449C27.9715 16.3466 28.3319 16.2273 28.7223 16.2273C29.0527 16.2273 29.4131 16.3466 29.7134 16.6449C30.254 17.152 30.254 18.0767 29.7134 18.6435C28.3018 20.0455 26.3196 20.9403 24.1872 20.9403C19.8323 20.9403 16.3484 17.4503 16.3484 13.125ZM28.9626 12.1406C28.5121 9.93324 26.5599 8.23295 24.1872 8.23295C21.7845 8.23295 19.8323 9.93324 19.4119 12.1406H28.9626Z" fill="white"/>
<path d="M34.5505 1.43182C34.5505 0.65625 35.1512 0 35.932 0C36.773 0 37.3737 0.68608 37.3737 1.43182V19.5085C37.3737 20.2543 36.773 20.9105 35.932 20.9105C35.1512 20.9105 34.5505 20.2841 34.5505 19.5085V1.43182Z" fill="white"/>
<path d="M40.8857 1.43182C40.8857 0.65625 41.4864 0 42.2673 0C43.1082 0 43.7089 0.68608 43.7089 1.43182V19.5085C43.7089 20.2543 43.1082 20.9105 42.2673 20.9105C41.4864 20.9105 40.8857 20.2841 40.8857 19.5085V1.43182Z" fill="white"/>
<path d="M46.4701 13.1548C46.4701 8.85938 49.9841 5.36932 54.2789 5.36932C58.6338 5.36932 62.1177 8.85938 62.1177 13.1548C62.1177 15.8693 64.3402 18.0767 67.1033 18.0767C68.4248 18.0767 69.6862 17.5398 70.5571 16.6449C70.8275 16.3466 71.2479 16.2273 71.5783 16.2273C71.9988 16.2273 72.3291 16.3466 72.5994 16.6449C73.14 17.1818 73.14 18.1065 72.5994 18.6435C71.1578 20.0455 69.2657 20.9105 67.1033 20.9105C62.7484 20.9105 59.2344 17.4503 59.2344 13.1548C59.2344 10.4105 57.042 8.20312 54.2789 8.20312C51.5458 8.20312 49.3233 10.4105 49.3233 13.1548C49.3233 15.8693 51.5458 18.0767 54.2789 18.0767C55.6905 18.0767 57.0119 17.4503 57.8829 16.4957C58.1833 17.4503 58.6638 18.3153 59.2945 19.0312C57.943 20.2244 56.2311 20.9105 54.2789 20.9105C49.9841 20.9105 46.4701 17.4503 46.4701 13.1548ZM61.9975 7.21875C63.3491 6.0554 65.1511 5.36932 67.1033 5.36932C69.2657 5.36932 71.1578 6.23438 72.5994 7.60653C73.14 8.20312 73.14 9.09801 72.5994 9.66477C72.3291 9.90341 71.9687 10.0526 71.5783 10.0526C71.2479 10.0526 70.8275 9.90341 70.5571 9.66477C69.6261 8.74006 68.4248 8.20312 67.1033 8.20312C65.6316 8.20312 64.3702 8.82954 63.4692 9.78409C63.1689 8.82954 62.6583 7.93466 61.9975 7.21875Z" fill="#00C159"/>
<path d="M75.4878 12.2599C75.4878 8.47159 78.5813 5.36932 82.4256 5.36932C83.2065 5.36932 83.8372 5.99574 83.8372 6.77131C83.8372 7.54688 83.2065 8.20312 82.4256 8.20312C80.113 8.20312 78.311 9.9929 78.311 12.2599V19.5384C78.311 20.3437 77.7103 21 76.8694 21C76.0885 21 75.4878 20.3139 75.4878 19.5384V12.2599Z" fill="white"/>
<path d="M84.4522 13.125C84.4522 8.85937 87.9361 5.39915 92.291 5.39915C96.2554 5.39915 99.5291 8.35227 99.9796 12.1406C100.22 13.3338 99.8295 14.169 98.3278 14.169H87.5156C87.9361 16.3764 89.8583 18.0767 92.291 18.0767C93.6425 18.0767 94.8739 17.5398 95.7749 16.6449C96.0752 16.3466 96.4356 16.2273 96.8261 16.2273C97.1565 16.2273 97.5168 16.3466 97.8172 16.6449C98.3578 17.152 98.3578 18.0767 97.8172 18.6435C96.4056 20.0455 94.4234 20.9403 92.291 20.9403C87.9361 20.9403 84.4522 17.4503 84.4522 13.125ZM97.0663 12.1406C96.6158 9.93324 94.6637 8.23295 92.291 8.23295C89.8883 8.23295 87.9361 9.93324 87.5156 12.1406H97.0663Z" fill="white"/>
<path d="M109.712 20.9403C105.387 20.9403 101.903 17.4503 101.903 13.125C101.903 8.82955 105.387 5.36932 109.712 5.36932C114.037 5.36932 117.521 8.82955 117.521 13.125V19.5085C117.521 20.2543 116.86 20.9403 116.049 20.9403C115.298 20.9403 114.608 20.2543 114.608 19.5085V19.1804C113.286 20.2841 111.574 20.9403 109.712 20.9403ZM104.727 13.125C104.727 15.8693 106.949 18.0767 109.712 18.0767C112.415 18.0767 114.638 15.8693 114.638 13.125C114.638 10.4105 112.415 8.20312 109.712 8.20312C106.949 8.20312 104.727 10.4105 104.727 13.125Z" fill="white"/>
<path d="M122.366 1.43182C122.366 0.65625 123.026 0 123.747 0C124.588 0 125.249 0.68608 125.249 1.43182V5.36932H127.742C128.553 5.36932 129.213 6.02557 129.213 6.80114C129.213 7.54688 128.553 8.20312 127.742 8.20312H125.249V19.5085C125.249 20.2543 124.588 20.9105 123.747 20.9105C123.026 20.9105 122.366 20.2841 122.366 19.5085V8.20312H119.783C119.032 8.20312 118.401 7.54688 118.401 6.80114C118.401 6.02557 119.032 5.36932 119.783 5.36932H122.366V1.43182Z" fill="white"/>
<path d="M131.309 6.80114C131.309 6.02557 131.969 5.36932 132.72 5.36932C133.591 5.36932 134.192 6.02557 134.192 6.80114V19.5085C134.192 20.2543 133.591 20.9105 132.72 20.9105C131.969 20.9105 131.309 20.2543 131.309 19.5085V6.80114ZM131.099 2.35653C131.099 1.43182 131.789 0.68608 132.72 0.68608C133.681 0.68608 134.432 1.43182 134.432 2.35653C134.432 3.31108 133.681 4.05682 132.72 4.05682C131.789 4.05682 131.099 3.31108 131.099 2.35653Z" fill="white"/>
<path d="M142.749 20.1349L136.622 7.39773C136.232 6.65199 136.562 5.84659 137.253 5.51847C137.463 5.39915 137.673 5.36932 137.914 5.36932C138.424 5.36932 138.905 5.63778 139.145 6.11506L144.04 16.3764L148.936 6.11506C149.176 5.63778 149.627 5.36932 150.197 5.36932C150.408 5.36932 150.648 5.39915 150.828 5.51847C151.519 5.84659 151.819 6.65199 151.489 7.39773L145.332 20.1349C145.092 20.642 144.581 20.9403 144.04 20.9403C143.53 20.9403 142.989 20.642 142.749 20.1349Z" fill="white"/>
<path d="M152.849 13.125C152.849 8.85937 156.333 5.39915 160.688 5.39915C164.653 5.39915 167.926 8.35227 168.377 12.1406C168.617 13.3338 168.227 14.169 166.725 14.169H155.913C156.333 16.3764 158.255 18.0767 160.688 18.0767C162.04 18.0767 163.271 17.5398 164.172 16.6449C164.472 16.3466 164.833 16.2273 165.223 16.2273C165.554 16.2273 165.914 16.3466 166.214 16.6449C166.755 17.152 166.755 18.0767 166.214 18.6435C164.803 20.0455 162.82 20.9403 160.688 20.9403C156.333 20.9403 152.849 17.4503 152.849 13.125ZM165.463 12.1406C165.013 9.93324 163.061 8.23295 160.688 8.23295C158.285 8.23295 156.333 9.93324 155.913 12.1406H165.463Z" fill="white"/>
<path d="M175.046 5.36932H181.263C182.044 5.36932 182.704 5.99574 182.704 6.77131C182.704 7.54688 182.044 8.20312 181.263 8.20312H174.806C172.853 8.20312 172.403 10.1122 174.295 10.8281L180.332 12.946C183.125 13.8707 184.026 16.0483 183.545 17.8381C183.155 19.5085 181.473 20.9105 178.95 20.9105H172.253C171.472 20.9105 170.841 20.2841 170.841 19.5085C170.841 18.733 171.472 18.0767 172.253 18.0767H179.19C181.053 18.0767 181.563 16.1378 179.671 15.4219L173.574 13.3338C170.841 12.4389 169.91 10.2017 170.361 8.44176C170.841 6.77131 172.493 5.36932 175.046 5.36932Z" fill="white"/>
<path d="M187.114 6.81063C187.476 5.72695 188.681 5.04417 189.804 5.28559C190.928 5.52701 191.545 6.60121 191.183 7.68488L190.116 10.8793C189.754 11.963 188.549 12.6458 187.426 12.4044C186.302 12.1629 185.685 11.0887 186.047 10.0051L187.114 6.81063Z" fill="#00C159"/>
<path d="M192.827 6.81063C193.19 5.72695 194.394 5.04417 195.518 5.28559C196.641 5.52701 197.259 6.60121 196.896 7.68488L195.829 10.8793C195.467 11.963 194.262 12.6458 193.139 12.4044C192.015 12.1629 191.398 11.0887 191.76 10.0051L192.827 6.81063Z" fill="#00C159"/>
</svg>
