<svg width="18" height="18" viewBox="0 0 18 18" fill="none" xmlns="http://www.w3.org/2000/svg">
<g opacity="0.3">
<path d="M11.1463 2.26271C11.3024 2.24996 11.4868 2.24998 11.6761 2.25H13.0739C13.2632 2.24998 13.4476 2.24996 13.6037 2.26271C13.7751 2.27672 13.9774 2.30977 14.181 2.41349C14.4632 2.5573 14.6927 2.78678 14.8365 3.06902C14.9402 3.27259 14.9733 3.47489 14.9873 3.64633C15 3.80245 15 3.98679 15 4.17608V5.57393C15 5.76321 15 5.94756 14.9873 6.10368C14.9733 6.27512 14.9402 6.47742 14.8365 6.68099C14.6927 6.96323 14.4632 7.1927 14.181 7.33651C13.9774 7.44024 13.7751 7.47329 13.6037 7.4873C13.4476 7.50005 13.2632 7.50003 13.0739 7.50001H11.6761C11.4868 7.50003 11.3025 7.50005 11.1463 7.4873C10.9749 7.47329 10.7726 7.44024 10.569 7.33651C10.2868 7.1927 10.0573 6.96323 9.91349 6.68099C9.80977 6.47742 9.77672 6.27512 9.76271 6.10368C9.74996 5.94756 9.74998 5.76321 9.75 5.57393V4.17607C9.74998 3.98679 9.74996 3.80245 9.76271 3.64633C9.77672 3.47489 9.80977 3.27259 9.91349 3.06902C10.0573 2.78678 10.2868 2.5573 10.569 2.41349C10.7726 2.30977 10.9749 2.27672 11.1463 2.26271Z" fill="white"/>
<path d="M11.1463 9.01271C11.3025 8.99996 11.4868 8.99998 11.6761 9H14.5739C14.7632 8.99998 14.9476 8.99996 15.1037 9.01271C15.2751 9.02672 15.4774 9.05977 15.681 9.16349C15.9632 9.3073 16.1927 9.53677 16.3365 9.81902C16.4402 10.0226 16.4733 10.2249 16.4873 10.3963C16.5001 10.5525 16.5 10.7368 16.5 10.9261V13.8239C16.5 14.0132 16.5001 14.1976 16.4873 14.3537C16.4733 14.5251 16.4402 14.7274 16.3365 14.931C16.1927 15.2132 15.9632 15.4427 15.681 15.5865C15.4774 15.6902 15.2751 15.7233 15.1037 15.7373C14.9476 15.75 14.7632 15.75 14.574 15.75H11.676C11.4868 15.75 11.3024 15.75 11.1463 15.7373C10.9749 15.7233 10.7726 15.6902 10.569 15.5865C10.2868 15.4427 10.0573 15.2132 9.91349 14.931C9.80977 14.7274 9.77672 14.5251 9.76271 14.3537C9.74996 14.1976 9.74998 14.0132 9.75 13.8239V10.9261C9.74998 10.7368 9.74996 10.5524 9.76271 10.3963C9.77672 10.2249 9.80977 10.0226 9.91349 9.81902C10.0573 9.53677 10.2868 9.3073 10.569 9.16349C10.7726 9.05977 10.9749 9.02672 11.1463 9.01271Z" fill="white"/>
</g>
<path d="M5.78033 2.46967C5.48744 2.17678 5.01256 2.17678 4.71967 2.46967L1.71967 5.46967C1.42678 5.76256 1.42678 6.23744 1.71967 6.53033C2.01256 6.82322 2.48744 6.82322 2.78033 6.53033L4.5 4.81066V15C4.5 15.4142 4.83579 15.75 5.25 15.75C5.66421 15.75 6 15.4142 6 15V4.81066L7.71967 6.53033C8.01256 6.82322 8.48744 6.82322 8.78033 6.53033C9.07322 6.23744 9.07322 5.76256 8.78033 5.46967L5.78033 2.46967Z" fill="white"/>
</svg>
