<svg width="18" height="18" viewBox="0 0 18 18" fill="none" xmlns="http://www.w3.org/2000/svg">
<path opacity="0.3" fill-rule="evenodd" clip-rule="evenodd" d="M13.2803 4.71967C12.9874 4.42678 12.5126 4.42678 12.2197 4.71967L4.71967 12.2197C4.42678 12.5126 4.42678 12.9874 4.71967 13.2803C5.01256 13.5732 5.48744 13.5732 5.78033 13.2803L13.2803 5.78033C13.5732 5.48744 13.5732 5.01256 13.2803 4.71967Z" fill="black"/>
<path fill-rule="evenodd" clip-rule="evenodd" d="M13.5 5.25C13.5 4.83579 13.1642 4.5 12.75 4.5H6C5.58579 4.5 5.25 4.83579 5.25 5.25C5.25 5.66421 5.58579 6 6 6H12V12C12 12.4142 12.3358 12.75 12.75 12.75C13.1642 12.75 13.5 12.4142 13.5 12V5.25Z" fill="black"/>
</svg>
