<svg width="12" height="12" viewBox="0 0 12 12" fill="none" xmlns="http://www.w3.org/2000/svg">
<path opacity="0.3" fill-rule="evenodd" clip-rule="evenodd" d="M2.5 6C2.5 5.72386 2.72386 5.5 3 5.5H9C9.27614 5.5 9.5 5.72386 9.5 6C9.5 6.27614 9.27614 6.5 9 6.5H3C2.72386 6.5 2.5 6.27614 2.5 6Z" fill="#4A4A4A"/>
<path fill-rule="evenodd" clip-rule="evenodd" d="M5.85355 3.14645C6.04882 3.34171 6.04882 3.65829 5.85355 3.85355L3.70711 6L5.85355 8.14645C6.04882 8.34171 6.04882 8.65829 5.85355 8.85355C5.65829 9.04882 5.34171 9.04882 5.14645 8.85355L2.64645 6.35355C2.45118 6.15829 2.45118 5.84171 2.64645 5.64645L5.14645 3.14645C5.34171 2.95118 5.65829 2.95118 5.85355 3.14645Z" fill="#4A4A4A"/>
</svg>
