<svg width="16" height="16" viewBox="0 0 16 16" fill="none" xmlns="http://www.w3.org/2000/svg">
<path opacity="0.3" d="M14.6668 8C14.6668 11.6819 11.6821 14.6667 8.00016 14.6667C4.31826 14.6667 1.3335 11.6819 1.3335 8C1.3335 4.3181 4.31826 1.33333 8.00016 1.33333C11.6821 1.33333 14.6668 4.3181 14.6668 8Z" fill="black"/>
<path fill-rule="evenodd" clip-rule="evenodd" d="M2.70801 7.33332H4.68754C4.70587 7.07968 4.73599 6.83025 4.77675 6.58549C5.01453 5.15739 5.60905 3.91676 6.28857 2.9472C4.38518 3.59171 2.96386 5.28154 2.70801 7.33332ZM8.00008 2.93795C7.19666 3.81522 6.36368 5.17263 6.09197 6.80448C6.06322 6.97714 6.04064 7.15349 6.02506 7.33332H9.97509C9.95951 7.15349 9.93693 6.97714 9.90819 6.80448C9.63647 5.17263 8.8035 3.81522 8.00008 2.93795ZM9.9569 8.66665H6.04326C6.19446 9.99151 6.75972 11.4524 8.00008 12.9801C9.24044 11.4524 9.8057 9.99151 9.9569 8.66665ZM6.41715 13.0945C5.35092 11.5682 4.83592 10.07 4.70259 8.66665H2.70801C2.96959 10.7644 4.44941 12.4838 6.41715 13.0945ZM9.58301 13.0945C10.6492 11.5682 11.1642 10.07 11.2976 8.66665H13.2921C13.0306 10.7644 11.5507 12.4838 9.58301 13.0945ZM13.2921 7.33332H11.3126C11.2943 7.07968 11.2642 6.83025 11.2234 6.58549C10.9856 5.15739 10.3911 3.91676 9.71159 2.9472C11.615 3.59171 13.0363 5.28154 13.2921 7.33332Z" fill="black"/>
</svg>
