<svg width="20" height="20" viewBox="0 0 20 20" fill="none" xmlns="http://www.w3.org/2000/svg">
<path d="M18.2474 5.52559C18.5142 6.27349 18.14 6.78554 17.4157 7.28992C16.8313 7.69689 16.0867 8.13777 15.2978 8.89152C14.5244 9.63043 13.7696 10.5204 13.0989 11.3964C12.286 12.4579 11.5173 13.5666 10.8408 14.7211C10.5856 15.1584 10.1269 15.4231 9.63509 15.4165C9.14313 15.4098 8.69127 15.133 8.44717 14.6888C7.82321 13.5533 7.34171 13.1048 7.12042 12.9438C6.50641 12.4968 5.8335 12.4195 5.8335 11.4445C5.8335 10.6468 6.45535 10.0001 7.22245 10.0001C7.7714 10.0221 8.27395 10.2572 8.71345 10.5772C8.99855 10.7847 9.30057 11.0592 9.61472 11.4205C9.98341 10.8758 10.4277 10.2473 10.9258 9.59687C11.6491 8.6523 12.5028 7.63899 13.4184 6.76425C14.3184 5.90434 15.359 5.09942 16.462 4.67385C17.1812 4.39636 17.9805 4.77769 18.2474 5.52559Z" stroke="white" stroke-linecap="round" stroke-linejoin="round"/>
<path d="M3.69951 10.0628C3.56748 10.0196 3.44814 9.99236 3.3436 9.97599C3.29147 9.96783 3.24339 9.96243 3.19964 9.95908L3.08223 9.95443C2.30035 9.95443 1.6665 10.6066 1.6665 11.411C1.6665 12.139 2.18562 12.7423 2.86379 12.8503C2.88751 12.8628 2.92598 12.8853 2.97823 12.9229C3.20379 13.0854 3.69456 13.5376 4.33056 14.6827C4.57936 15.1306 5.03993 15.4098 5.54136 15.4165C5.88485 15.4211 6.21249 15.2972 6.46839 15.0769M12.4998 4.58325C11.3756 5.01241 10.315 5.82412 9.39757 6.69128C9.07723 6.99408 8.76432 7.31334 8.46166 7.64062" stroke="white" stroke-linecap="round" stroke-linejoin="round"/>
</svg>
