<svg width="36" height="36" viewBox="0 0 36 36" fill="none" xmlns="http://www.w3.org/2000/svg">
<rect width="36" height="36" rx="8" fill="#8B7FFD"/>
<path fill-rule="evenodd" clip-rule="evenodd" d="M17.3262 12.2589C16.9406 12.1663 16.5408 12.1665 16.0116 12.1668L14.8825 12.1668C14.2117 12.1668 13.658 12.1668 13.207 12.2036C12.7386 12.2419 12.308 12.324 11.9036 12.5301C11.2764 12.8497 10.7664 13.3596 10.4469 13.9868C10.2408 14.3913 10.1586 14.8219 10.1204 15.2903C10.0835 15.7413 10.0835 16.2949 10.0835 16.9657L10.0835 18.0948C10.0833 18.624 10.0831 19.0238 10.1756 19.4094C10.2573 19.7495 10.392 20.0747 10.5747 20.3729C10.7819 20.711 11.0648 20.9936 11.4392 21.3676C12.0551 21.983 12.6706 22.5987 13.2861 23.2144C13.5875 23.5158 13.8888 23.8172 14.1902 24.1186C14.6645 24.5929 15.056 24.9845 15.401 25.2773C15.7592 25.5815 16.1218 25.8279 16.5535 25.9681C17.223 26.1856 17.9441 26.1856 18.6136 25.9681C19.0453 25.8279 19.4079 25.5815 19.7661 25.2773C20.1111 24.9845 20.5026 24.593 20.9769 24.1186L22.0353 23.0602C22.5097 22.5858 22.9012 22.1944 23.1941 21.8494C23.4982 21.4911 23.7446 21.1286 23.8849 20.6969C24.1024 20.0274 24.1024 19.3062 23.8849 18.6367C23.7446 18.205 23.4982 17.8425 23.1941 17.4842C22.9012 17.1392 22.5097 16.7478 22.0354 16.2734C21.7344 15.9724 21.4333 15.6715 21.1323 15.3705C20.5162 14.7546 19.9001 14.1387 19.2844 13.5224C18.9104 13.148 18.6278 12.8652 18.2897 12.658C17.9914 12.4752 17.6663 12.3406 17.3262 12.2589Z" fill="#F9FCFE"/>
<g opacity="0.3">
<path d="M17.5932 11.3335C18.2443 11.3335 18.4341 11.3388 18.6036 11.3795C18.7737 11.4203 18.9362 11.4877 19.0854 11.5791C19.234 11.6701 19.3719 11.8005 19.8324 12.261L24.4941 16.9227C24.8196 17.2482 25.3472 17.2482 25.6726 16.9227C25.9981 16.5973 25.9981 16.0696 25.6726 15.7442L20.9509 11.0224C20.5769 10.648 20.2943 10.3652 19.9562 10.158C19.6579 9.97524 19.3328 9.84056 18.9927 9.7589C18.6071 9.66633 18.2073 9.66652 17.6781 9.66677L15.0834 9.6668C14.6231 9.6668 14.2501 10.0399 14.2501 10.5001C14.2501 10.9604 14.6231 11.3335 15.0834 11.3335H17.5932Z" fill="#F9FCFE"/>
<path fill-rule="evenodd" clip-rule="evenodd" d="M14.25 17.5834C14.9404 17.5834 15.5 17.0238 15.5 16.3334C15.5 15.6431 14.9404 15.0834 14.25 15.0834C13.5596 15.0834 13 15.6431 13 16.3334C13 17.0238 13.5596 17.5834 14.25 17.5834Z" fill="#F9FCFE"/>
</g>
</svg>
